<mxfile host="Electron" modified="2024-03-29T09:02:03.809Z" agent="Mozilla/5.0 (X11; Linux x86_64) AppleWebKit/537.36 (KHTML, like Gecko) draw.io/24.0.4 Chrome/120.0.6099.109 Electron/28.1.0 Safari/537.36" etag="iiJOBMEH0KMifyJex4yu" version="24.0.4" type="device">
  <diagram name="第 1 页" id="5ecxGKuO9zAlg00WOWPb">
    <mxGraphModel dx="1498" dy="1239" grid="1" gridSize="10" guides="1" tooltips="1" connect="1" arrows="1" fold="1" page="1" pageScale="1" pageWidth="827" pageHeight="1169" math="0" shadow="0">
      <root>
        <mxCell id="0" />
        <mxCell id="1" parent="0" />
        <mxCell id="GHSWFIpDczAcJTBnpGK2-1" value="User&#39;s Mobile Phone" style="rounded=1;whiteSpace=wrap;html=1;hachureGap=4;fontFamily=Helvetica;glass=0;shadow=0;textShadow=0;verticalAlign=bottom;fontSize=18;fontStyle=1;fillColor=#f5f5f5;fontColor=#333333;strokeColor=#666666;" vertex="1" parent="1">
          <mxGeometry x="74" y="220" width="436" height="450" as="geometry" />
        </mxCell>
        <mxCell id="GHSWFIpDczAcJTBnpGK2-3" value="User&#39;s Vehicle" style="rounded=1;whiteSpace=wrap;html=1;hachureGap=4;fontFamily=Helvetica;glass=0;shadow=0;textShadow=0;verticalAlign=bottom;fontSize=18;fontStyle=1;fillColor=#dae8fc;strokeColor=#6c8ebf;" vertex="1" parent="1">
          <mxGeometry x="610" y="220" width="420" height="450" as="geometry" />
        </mxCell>
        <mxCell id="GHSWFIpDczAcJTBnpGK2-4" value="Device OEM Server" style="rounded=1;whiteSpace=wrap;html=1;hachureGap=4;fontFamily=Helvetica;glass=0;shadow=0;textShadow=0;verticalAlign=bottom;fontSize=18;fontStyle=1;fillColor=#ffe6cc;strokeColor=#d79b00;" vertex="1" parent="1">
          <mxGeometry x="330" y="20" width="690" height="120" as="geometry" />
        </mxCell>
        <mxCell id="GHSWFIpDczAcJTBnpGK2-5" value="Vehicle OEM Server" style="rounded=1;whiteSpace=wrap;html=1;hachureGap=4;fontFamily=Helvetica;glass=0;shadow=0;textShadow=0;verticalAlign=bottom;fontSize=18;fontStyle=1;fillColor=#ffe6cc;strokeColor=#d79b00;" vertex="1" parent="1">
          <mxGeometry x="75.5" y="20" width="224.5" height="120" as="geometry" />
        </mxCell>
        <mxCell id="GHSWFIpDczAcJTBnpGK2-10" value="" style="rounded=1;whiteSpace=wrap;html=1;hachureGap=4;fontFamily=Helvetica;glass=0;shadow=0;textShadow=0;verticalAlign=bottom;fontSize=18;fontStyle=1" vertex="1" parent="1">
          <mxGeometry x="100" y="270" width="176" height="80" as="geometry" />
        </mxCell>
        <mxCell id="GHSWFIpDczAcJTBnpGK2-11" value="" style="rounded=1;whiteSpace=wrap;html=1;hachureGap=4;fontFamily=Helvetica;glass=0;shadow=0;textShadow=0;verticalAlign=bottom;fontSize=18;fontStyle=1" vertex="1" parent="1">
          <mxGeometry x="110" y="280" width="176" height="80" as="geometry" />
        </mxCell>
        <mxCell id="GHSWFIpDczAcJTBnpGK2-12" value="Vehicle OEM Apps" style="rounded=1;whiteSpace=wrap;html=1;hachureGap=4;fontFamily=Helvetica;glass=0;shadow=0;textShadow=0;verticalAlign=bottom;fontSize=18;fontStyle=1" vertex="1" parent="1">
          <mxGeometry x="120" y="290" width="176" height="80" as="geometry" />
        </mxCell>
        <mxCell id="GHSWFIpDczAcJTBnpGK2-16" value="ECU&lt;div&gt;(MCU&lt;span style=&quot;background-color: initial;&quot;&gt;)&lt;/span&gt;&lt;/div&gt;" style="rounded=1;whiteSpace=wrap;html=1;hachureGap=4;fontFamily=Helvetica;glass=0;shadow=0;textShadow=0;verticalAlign=middle;fontSize=18;fontStyle=1" vertex="1" parent="1">
          <mxGeometry x="760" y="430" width="110" height="180" as="geometry" />
        </mxCell>
        <mxCell id="GHSWFIpDczAcJTBnpGK2-17" value="Digital Key Framework" style="rounded=1;whiteSpace=wrap;html=1;hachureGap=4;fontFamily=Helvetica;glass=0;shadow=0;textShadow=0;verticalAlign=bottom;fontSize=18;fontStyle=1" vertex="1" parent="1">
          <mxGeometry x="99" y="440" width="290" height="80" as="geometry" />
        </mxCell>
        <mxCell id="GHSWFIpDczAcJTBnpGK2-18" value="Secure element" style="rounded=1;whiteSpace=wrap;html=1;hachureGap=4;fontFamily=Helvetica;glass=0;shadow=0;textShadow=0;verticalAlign=bottom;fontSize=18;fontStyle=1;align=left;" vertex="1" parent="1">
          <mxGeometry x="99" y="550" width="290" height="80" as="geometry" />
        </mxCell>
        <mxCell id="GHSWFIpDczAcJTBnpGK2-19" value="Digital Key Applet" style="rounded=1;whiteSpace=wrap;html=1;hachureGap=4;fontFamily=Helvetica;glass=0;shadow=0;textShadow=0;verticalAlign=bottom;fontSize=18;fontStyle=1;align=left;" vertex="1" parent="1">
          <mxGeometry x="260" y="565" width="110" height="50" as="geometry" />
        </mxCell>
        <mxCell id="GHSWFIpDczAcJTBnpGK2-20" value="NFC/&lt;div&gt;Bluetooch&lt;/div&gt;&lt;div&gt;stack&lt;/div&gt;" style="rounded=1;whiteSpace=wrap;html=1;hachureGap=4;fontFamily=Helvetica;glass=0;shadow=0;textShadow=0;verticalAlign=middle;fontSize=18;fontStyle=1" vertex="1" parent="1">
          <mxGeometry x="412.5" y="440" width="77.5" height="190" as="geometry" />
        </mxCell>
        <mxCell id="GHSWFIpDczAcJTBnpGK2-21" value="Native App" style="rounded=1;whiteSpace=wrap;html=1;hachureGap=4;fontFamily=Helvetica;glass=0;shadow=0;textShadow=0;verticalAlign=bottom;fontSize=18;fontStyle=1" vertex="1" parent="1">
          <mxGeometry x="334" y="290" width="106" height="80" as="geometry" />
        </mxCell>
        <mxCell id="GHSWFIpDczAcJTBnpGK2-22" value="Bluetooth&lt;div&gt;module&lt;/div&gt;" style="rounded=1;whiteSpace=wrap;html=1;hachureGap=4;fontFamily=Helvetica;glass=0;shadow=0;textShadow=0;verticalAlign=bottom;fontSize=18;fontStyle=1" vertex="1" parent="1">
          <mxGeometry x="620" y="430" width="130" height="80" as="geometry" />
        </mxCell>
        <mxCell id="GHSWFIpDczAcJTBnpGK2-23" value="NFC module" style="rounded=1;whiteSpace=wrap;html=1;hachureGap=4;fontFamily=Helvetica;glass=0;shadow=0;textShadow=0;verticalAlign=bottom;fontSize=18;fontStyle=1" vertex="1" parent="1">
          <mxGeometry x="620" y="530" width="130" height="80" as="geometry" />
        </mxCell>
        <mxCell id="GHSWFIpDczAcJTBnpGK2-24" value="UMB moduel" style="rounded=1;whiteSpace=wrap;html=1;hachureGap=4;fontFamily=Helvetica;glass=0;shadow=0;textShadow=0;verticalAlign=bottom;fontSize=18;fontStyle=1" vertex="1" parent="1">
          <mxGeometry x="880" y="430" width="130" height="70" as="geometry" />
        </mxCell>
        <mxCell id="GHSWFIpDczAcJTBnpGK2-27" value="UMB moduel" style="rounded=1;whiteSpace=wrap;html=1;hachureGap=4;fontFamily=Helvetica;glass=0;shadow=0;textShadow=0;verticalAlign=bottom;fontSize=18;fontStyle=1" vertex="1" parent="1">
          <mxGeometry x="880" y="550" width="130" height="60" as="geometry" />
        </mxCell>
        <mxCell id="GHSWFIpDczAcJTBnpGK2-28" value="...." style="rounded=1;whiteSpace=wrap;html=1;hachureGap=4;fontFamily=Helvetica;glass=0;shadow=0;textShadow=0;verticalAlign=bottom;fontSize=18;fontStyle=1" vertex="1" parent="1">
          <mxGeometry x="880" y="510" width="130" height="30" as="geometry" />
        </mxCell>
        <mxCell id="GHSWFIpDczAcJTBnpGK2-29" value="Internal communication modules&lt;div&gt;(CAN / UART / Ethernet)&lt;/div&gt;" style="rounded=1;whiteSpace=wrap;html=1;hachureGap=4;fontFamily=Helvetica;glass=0;shadow=0;textShadow=0;verticalAlign=bottom;fontSize=18;fontStyle=1" vertex="1" parent="1">
          <mxGeometry x="635" y="340" width="370" height="70" as="geometry" />
        </mxCell>
        <mxCell id="GHSWFIpDczAcJTBnpGK2-31" value="HSE" style="rounded=1;whiteSpace=wrap;html=1;hachureGap=4;fontFamily=Helvetica;glass=0;shadow=0;textShadow=0;verticalAlign=bottom;fontSize=18;fontStyle=1" vertex="1" parent="1">
          <mxGeometry x="775" y="550" width="80" height="50" as="geometry" />
        </mxCell>
        <mxCell id="GHSWFIpDczAcJTBnpGK2-33" value="TCU" style="rounded=1;whiteSpace=wrap;html=1;hachureGap=4;fontFamily=Helvetica;glass=0;shadow=0;textShadow=0;verticalAlign=bottom;fontSize=18;fontStyle=1" vertex="1" parent="1">
          <mxGeometry x="635" y="250" width="370" height="70" as="geometry" />
        </mxCell>
        <mxCell id="GHSWFIpDczAcJTBnpGK2-37" value="" style="shape=flexArrow;endArrow=classic;startArrow=classic;html=1;rounded=0;" edge="1" parent="1">
          <mxGeometry width="100" height="100" relative="1" as="geometry">
            <mxPoint x="187.5" y="290" as="sourcePoint" />
            <mxPoint x="187.5" y="140" as="targetPoint" />
          </mxGeometry>
        </mxCell>
        <mxCell id="GHSWFIpDczAcJTBnpGK2-38" value="" style="shape=flexArrow;endArrow=classic;startArrow=classic;html=1;rounded=0;" edge="1" parent="1">
          <mxGeometry width="100" height="100" relative="1" as="geometry">
            <mxPoint x="388" y="290" as="sourcePoint" />
            <mxPoint x="388" y="140" as="targetPoint" />
          </mxGeometry>
        </mxCell>
        <mxCell id="GHSWFIpDczAcJTBnpGK2-39" value="" style="shape=flexArrow;endArrow=classic;startArrow=classic;html=1;rounded=0;" edge="1" parent="1">
          <mxGeometry width="100" height="100" relative="1" as="geometry">
            <mxPoint x="190" y="440" as="sourcePoint" />
            <mxPoint x="190" y="370" as="targetPoint" />
          </mxGeometry>
        </mxCell>
        <mxCell id="GHSWFIpDczAcJTBnpGK2-40" value="" style="shape=flexArrow;endArrow=classic;startArrow=classic;html=1;rounded=0;" edge="1" parent="1">
          <mxGeometry width="100" height="100" relative="1" as="geometry">
            <mxPoint x="360" y="440" as="sourcePoint" />
            <mxPoint x="360" y="370" as="targetPoint" />
          </mxGeometry>
        </mxCell>
        <mxCell id="GHSWFIpDczAcJTBnpGK2-42" value="" style="shape=flexArrow;endArrow=classic;startArrow=classic;html=1;rounded=0;" edge="1" parent="1">
          <mxGeometry width="100" height="100" relative="1" as="geometry">
            <mxPoint x="360" y="580" as="sourcePoint" />
            <mxPoint x="360" y="510" as="targetPoint" />
          </mxGeometry>
        </mxCell>
        <mxCell id="GHSWFIpDczAcJTBnpGK2-43" value="" style="shape=flexArrow;endArrow=classic;startArrow=classic;html=1;rounded=0;" edge="1" parent="1">
          <mxGeometry width="100" height="100" relative="1" as="geometry">
            <mxPoint x="483" y="579.5" as="sourcePoint" />
            <mxPoint x="635" y="579.5" as="targetPoint" />
          </mxGeometry>
        </mxCell>
        <mxCell id="GHSWFIpDczAcJTBnpGK2-44" value="" style="shape=flexArrow;endArrow=classic;startArrow=classic;html=1;rounded=0;" edge="1" parent="1">
          <mxGeometry width="100" height="100" relative="1" as="geometry">
            <mxPoint x="483" y="469.5" as="sourcePoint" />
            <mxPoint x="635" y="469.5" as="targetPoint" />
          </mxGeometry>
        </mxCell>
        <mxCell id="GHSWFIpDczAcJTBnpGK2-45" value="" style="shape=flexArrow;endArrow=classic;startArrow=classic;html=1;rounded=0;" edge="1" parent="1">
          <mxGeometry width="100" height="100" relative="1" as="geometry">
            <mxPoint x="365" y="479" as="sourcePoint" />
            <mxPoint x="437" y="479" as="targetPoint" />
          </mxGeometry>
        </mxCell>
        <mxCell id="GHSWFIpDczAcJTBnpGK2-47" value="" style="shape=flexArrow;endArrow=classic;startArrow=classic;html=1;rounded=0;width=6.285714285714286;endSize=2.1028571428571428;startSize=3.325714285714286;" edge="1" parent="1">
          <mxGeometry width="100" height="100" relative="1" as="geometry">
            <mxPoint x="731" y="469.5" as="sourcePoint" />
            <mxPoint x="781" y="470" as="targetPoint" />
          </mxGeometry>
        </mxCell>
        <mxCell id="GHSWFIpDczAcJTBnpGK2-48" value="" style="shape=flexArrow;endArrow=classic;startArrow=classic;html=1;rounded=0;width=6.285714285714286;endSize=2.1028571428571428;startSize=3.325714285714286;" edge="1" parent="1">
          <mxGeometry width="100" height="100" relative="1" as="geometry">
            <mxPoint x="720" y="565" as="sourcePoint" />
            <mxPoint x="770" y="565.5" as="targetPoint" />
          </mxGeometry>
        </mxCell>
        <mxCell id="GHSWFIpDczAcJTBnpGK2-49" value="" style="shape=flexArrow;endArrow=classic;startArrow=classic;html=1;rounded=0;width=6.285714285714286;endSize=2.1028571428571428;startSize=3.325714285714286;" edge="1" parent="1">
          <mxGeometry width="100" height="100" relative="1" as="geometry">
            <mxPoint x="840" y="469.71" as="sourcePoint" />
            <mxPoint x="890" y="470.21" as="targetPoint" />
          </mxGeometry>
        </mxCell>
        <mxCell id="GHSWFIpDczAcJTBnpGK2-50" value="" style="shape=flexArrow;endArrow=classic;startArrow=classic;html=1;rounded=0;width=6.285714285714286;endSize=2.1028571428571428;startSize=3.325714285714286;" edge="1" parent="1">
          <mxGeometry width="100" height="100" relative="1" as="geometry">
            <mxPoint x="860" y="565" as="sourcePoint" />
            <mxPoint x="910" y="565.5" as="targetPoint" />
          </mxGeometry>
        </mxCell>
        <mxCell id="GHSWFIpDczAcJTBnpGK2-52" value="" style="shape=flexArrow;endArrow=classic;startArrow=classic;html=1;rounded=0;" edge="1" parent="1">
          <mxGeometry width="100" height="100" relative="1" as="geometry">
            <mxPoint x="814" y="470" as="sourcePoint" />
            <mxPoint x="814.4100000000001" y="410" as="targetPoint" />
          </mxGeometry>
        </mxCell>
        <mxCell id="GHSWFIpDczAcJTBnpGK2-53" value="" style="shape=flexArrow;endArrow=classic;startArrow=classic;html=1;rounded=0;" edge="1" parent="1">
          <mxGeometry width="100" height="100" relative="1" as="geometry">
            <mxPoint x="878.82" y="360" as="sourcePoint" />
            <mxPoint x="879.2300000000001" y="300" as="targetPoint" />
          </mxGeometry>
        </mxCell>
        <mxCell id="GHSWFIpDczAcJTBnpGK2-54" value="" style="shape=flexArrow;endArrow=classic;startArrow=classic;html=1;rounded=0;" edge="1" parent="1">
          <mxGeometry width="100" height="100" relative="1" as="geometry">
            <mxPoint x="819.4100000000001" y="250" as="sourcePoint" />
            <mxPoint x="819" y="140" as="targetPoint" />
          </mxGeometry>
        </mxCell>
        <mxCell id="GHSWFIpDczAcJTBnpGK2-55" value="" style="sketch=0;aspect=fixed;pointerEvents=1;shadow=0;dashed=0;html=1;strokeColor=none;labelPosition=center;verticalLabelPosition=bottom;verticalAlign=top;align=center;fillColor=#00188D;shape=mxgraph.mscae.enterprise.wireless_connection" vertex="1" parent="1">
          <mxGeometry x="1010" y="440" width="42" height="50" as="geometry" />
        </mxCell>
        <mxCell id="GHSWFIpDczAcJTBnpGK2-56" value="" style="sketch=0;aspect=fixed;pointerEvents=1;shadow=0;dashed=0;html=1;strokeColor=none;labelPosition=center;verticalLabelPosition=bottom;verticalAlign=top;align=center;fillColor=#00188D;shape=mxgraph.mscae.enterprise.wireless_connection" vertex="1" parent="1">
          <mxGeometry x="1010" y="545" width="42" height="50" as="geometry" />
        </mxCell>
        <mxCell id="GHSWFIpDczAcJTBnpGK2-57" value="" style="sketch=0;aspect=fixed;pointerEvents=1;shadow=0;dashed=0;html=1;strokeColor=none;labelPosition=center;verticalLabelPosition=bottom;verticalAlign=top;align=center;fillColor=#00188D;shape=mxgraph.mscae.enterprise.wireless_connection;rotation=-177;" vertex="1" parent="1">
          <mxGeometry x="593" y="530" width="42" height="50" as="geometry" />
        </mxCell>
        <mxCell id="GHSWFIpDczAcJTBnpGK2-58" value="" style="sketch=0;aspect=fixed;pointerEvents=1;shadow=0;dashed=0;html=1;strokeColor=none;labelPosition=center;verticalLabelPosition=bottom;verticalAlign=top;align=center;fillColor=#00188D;shape=mxgraph.mscae.enterprise.wireless_connection;rotation=-177;" vertex="1" parent="1">
          <mxGeometry x="590" y="420" width="42" height="50" as="geometry" />
        </mxCell>
        <mxCell id="GHSWFIpDczAcJTBnpGK2-59" value="" style="points=[[0,0.58,0],[0.09,0.58,0],[0.36,0.39,0],[0.64,0.195,0],[0.91,0,0],[1,0,0],[1,0.25,0],[1,0.5,0],[1,0.75,0],[1,1,0],[0,1,0],[0.09,1,0],[0.36,1,0],[0.64,1,0],[0.91,1,0],[0,0.79,0]];verticalLabelPosition=bottom;sketch=0;html=1;verticalAlign=top;aspect=fixed;align=center;pointerEvents=1;shape=mxgraph.cisco19.wifi_indicator;fillColor=#005073;strokeColor=none;" vertex="1" parent="1">
          <mxGeometry x="900" y="220" width="50" height="50" as="geometry" />
        </mxCell>
        <mxCell id="GHSWFIpDczAcJTBnpGK2-60" value="" style="points=[[0,0.58,0],[0.09,0.58,0],[0.36,0.39,0],[0.64,0.195,0],[0.91,0,0],[1,0,0],[1,0.25,0],[1,0.5,0],[1,0.75,0],[1,1,0],[0,1,0],[0.09,1,0],[0.36,1,0],[0.64,1,0],[0.91,1,0],[0,0.79,0]];verticalLabelPosition=bottom;sketch=0;html=1;verticalAlign=top;aspect=fixed;align=center;pointerEvents=1;shape=mxgraph.cisco19.wifi_indicator;fillColor=#005073;strokeColor=none;" vertex="1" parent="1">
          <mxGeometry x="219" y="250" width="50" height="50" as="geometry" />
        </mxCell>
        <mxCell id="GHSWFIpDczAcJTBnpGK2-61" value="" style="points=[[0,0.58,0],[0.09,0.58,0],[0.36,0.39,0],[0.64,0.195,0],[0.91,0,0],[1,0,0],[1,0.25,0],[1,0.5,0],[1,0.75,0],[1,1,0],[0,1,0],[0.09,1,0],[0.36,1,0],[0.64,1,0],[0.91,1,0],[0,0.79,0]];verticalLabelPosition=bottom;sketch=0;html=1;verticalAlign=top;aspect=fixed;align=center;pointerEvents=1;shape=mxgraph.cisco19.wifi_indicator;fillColor=#005073;strokeColor=none;" vertex="1" parent="1">
          <mxGeometry x="410" y="250" width="50" height="50" as="geometry" />
        </mxCell>
        <mxCell id="GHSWFIpDczAcJTBnpGK2-63" value="" style="sketch=0;aspect=fixed;pointerEvents=1;shadow=0;dashed=0;html=1;strokeColor=none;labelPosition=center;verticalLabelPosition=bottom;verticalAlign=top;align=center;fillColor=#00188D;shape=mxgraph.mscae.enterprise.wireless_connection" vertex="1" parent="1">
          <mxGeometry x="502" y="670" width="42" height="50" as="geometry" />
        </mxCell>
        <mxCell id="GHSWFIpDczAcJTBnpGK2-65" value="" style="points=[[0,0.58,0],[0.09,0.58,0],[0.36,0.39,0],[0.64,0.195,0],[0.91,0,0],[1,0,0],[1,0.25,0],[1,0.5,0],[1,0.75,0],[1,1,0],[0,1,0],[0.09,1,0],[0.36,1,0],[0.64,1,0],[0.91,1,0],[0,0.79,0]];verticalLabelPosition=bottom;sketch=0;html=1;verticalAlign=top;aspect=fixed;align=center;pointerEvents=1;shape=mxgraph.cisco19.wifi_indicator;fillColor=#005073;strokeColor=none;" vertex="1" parent="1">
          <mxGeometry x="490" y="730" width="50" height="50" as="geometry" />
        </mxCell>
        <mxCell id="GHSWFIpDczAcJTBnpGK2-66" value="近场通信" style="text;html=1;align=center;verticalAlign=middle;resizable=0;points=[];autosize=1;strokeColor=none;fillColor=none;fontSize=21;" vertex="1" parent="1">
          <mxGeometry x="535" y="675" width="110" height="40" as="geometry" />
        </mxCell>
        <mxCell id="GHSWFIpDczAcJTBnpGK2-67" value="远程通信" style="text;html=1;align=center;verticalAlign=middle;resizable=0;points=[];autosize=1;strokeColor=none;fillColor=none;fontSize=21;" vertex="1" parent="1">
          <mxGeometry x="530" y="740" width="110" height="40" as="geometry" />
        </mxCell>
        <mxCell id="GHSWFIpDczAcJTBnpGK2-68" value="User&#39;s Mobile Phone" style="rounded=1;whiteSpace=wrap;html=1;hachureGap=4;fontFamily=Helvetica;glass=0;shadow=0;textShadow=0;verticalAlign=bottom;fontSize=18;fontStyle=1;fillColor=#f5f5f5;fontColor=#333333;strokeColor=#666666;" vertex="1" parent="1">
          <mxGeometry x="52" y="1070" width="436" height="450" as="geometry" />
        </mxCell>
        <mxCell id="GHSWFIpDczAcJTBnpGK2-69" value="User&#39;s Vehicle" style="rounded=1;whiteSpace=wrap;html=1;hachureGap=4;fontFamily=Helvetica;glass=0;shadow=0;textShadow=0;verticalAlign=bottom;fontSize=18;fontStyle=1;fillColor=#dae8fc;strokeColor=#6c8ebf;" vertex="1" parent="1">
          <mxGeometry x="588" y="1070" width="420" height="450" as="geometry" />
        </mxCell>
        <mxCell id="GHSWFIpDczAcJTBnpGK2-70" value="Device OEM Server" style="rounded=1;whiteSpace=wrap;html=1;hachureGap=4;fontFamily=Helvetica;glass=0;shadow=0;textShadow=0;verticalAlign=bottom;fontSize=18;fontStyle=1;fillColor=#ffe6cc;strokeColor=#d79b00;" vertex="1" parent="1">
          <mxGeometry x="308" y="870" width="690" height="120" as="geometry" />
        </mxCell>
        <mxCell id="GHSWFIpDczAcJTBnpGK2-71" value="Vehicle OEM Server" style="rounded=1;whiteSpace=wrap;html=1;hachureGap=4;fontFamily=Helvetica;glass=0;shadow=0;textShadow=0;verticalAlign=bottom;fontSize=18;fontStyle=1;fillColor=#ffe6cc;strokeColor=#d79b00;" vertex="1" parent="1">
          <mxGeometry x="53.5" y="870" width="224.5" height="120" as="geometry" />
        </mxCell>
        <mxCell id="GHSWFIpDczAcJTBnpGK2-72" value="" style="rounded=1;whiteSpace=wrap;html=1;hachureGap=4;fontFamily=Helvetica;glass=0;shadow=0;textShadow=0;verticalAlign=bottom;fontSize=18;fontStyle=1" vertex="1" parent="1">
          <mxGeometry x="78" y="1120" width="176" height="80" as="geometry" />
        </mxCell>
        <mxCell id="GHSWFIpDczAcJTBnpGK2-73" value="" style="rounded=1;whiteSpace=wrap;html=1;hachureGap=4;fontFamily=Helvetica;glass=0;shadow=0;textShadow=0;verticalAlign=bottom;fontSize=18;fontStyle=1" vertex="1" parent="1">
          <mxGeometry x="88" y="1130" width="176" height="80" as="geometry" />
        </mxCell>
        <mxCell id="GHSWFIpDczAcJTBnpGK2-74" value="Vehicle OEM Apps" style="rounded=1;whiteSpace=wrap;html=1;hachureGap=4;fontFamily=Helvetica;glass=0;shadow=0;textShadow=0;verticalAlign=bottom;fontSize=18;fontStyle=1" vertex="1" parent="1">
          <mxGeometry x="98" y="1140" width="176" height="80" as="geometry" />
        </mxCell>
        <mxCell id="GHSWFIpDczAcJTBnpGK2-75" value="ECU&lt;div&gt;(MCU&lt;span style=&quot;background-color: initial;&quot;&gt;)&lt;/span&gt;&lt;/div&gt;" style="rounded=1;whiteSpace=wrap;html=1;hachureGap=4;fontFamily=Helvetica;glass=0;shadow=0;textShadow=0;verticalAlign=middle;fontSize=18;fontStyle=1" vertex="1" parent="1">
          <mxGeometry x="738" y="1280" width="110" height="180" as="geometry" />
        </mxCell>
        <mxCell id="GHSWFIpDczAcJTBnpGK2-76" value="Digital Key Framework" style="rounded=1;whiteSpace=wrap;html=1;hachureGap=4;fontFamily=Helvetica;glass=0;shadow=0;textShadow=0;verticalAlign=bottom;fontSize=18;fontStyle=1" vertex="1" parent="1">
          <mxGeometry x="77" y="1290" width="290" height="80" as="geometry" />
        </mxCell>
        <mxCell id="GHSWFIpDczAcJTBnpGK2-77" value="Secure element" style="rounded=1;whiteSpace=wrap;html=1;hachureGap=4;fontFamily=Helvetica;glass=0;shadow=0;textShadow=0;verticalAlign=bottom;fontSize=18;fontStyle=1;align=left;" vertex="1" parent="1">
          <mxGeometry x="77" y="1400" width="290" height="80" as="geometry" />
        </mxCell>
        <mxCell id="GHSWFIpDczAcJTBnpGK2-78" value="Digital Key Applet" style="rounded=1;whiteSpace=wrap;html=1;hachureGap=4;fontFamily=Helvetica;glass=0;shadow=0;textShadow=0;verticalAlign=bottom;fontSize=18;fontStyle=1;align=left;" vertex="1" parent="1">
          <mxGeometry x="238" y="1415" width="110" height="50" as="geometry" />
        </mxCell>
        <mxCell id="GHSWFIpDczAcJTBnpGK2-79" value="NFC/&lt;div&gt;Bluetooch&lt;/div&gt;&lt;div&gt;stack&lt;/div&gt;" style="rounded=1;whiteSpace=wrap;html=1;hachureGap=4;fontFamily=Helvetica;glass=0;shadow=0;textShadow=0;verticalAlign=middle;fontSize=18;fontStyle=1" vertex="1" parent="1">
          <mxGeometry x="390.5" y="1290" width="77.5" height="190" as="geometry" />
        </mxCell>
        <mxCell id="GHSWFIpDczAcJTBnpGK2-80" value="Native App" style="rounded=1;whiteSpace=wrap;html=1;hachureGap=4;fontFamily=Helvetica;glass=0;shadow=0;textShadow=0;verticalAlign=bottom;fontSize=18;fontStyle=1" vertex="1" parent="1">
          <mxGeometry x="312" y="1140" width="106" height="80" as="geometry" />
        </mxCell>
        <mxCell id="GHSWFIpDczAcJTBnpGK2-81" value="Bluetooth&lt;div&gt;module&lt;/div&gt;" style="rounded=1;whiteSpace=wrap;html=1;hachureGap=4;fontFamily=Helvetica;glass=0;shadow=0;textShadow=0;verticalAlign=bottom;fontSize=18;fontStyle=1" vertex="1" parent="1">
          <mxGeometry x="598" y="1280" width="130" height="80" as="geometry" />
        </mxCell>
        <mxCell id="GHSWFIpDczAcJTBnpGK2-82" value="NFC module" style="rounded=1;whiteSpace=wrap;html=1;hachureGap=4;fontFamily=Helvetica;glass=0;shadow=0;textShadow=0;verticalAlign=bottom;fontSize=18;fontStyle=1" vertex="1" parent="1">
          <mxGeometry x="598" y="1380" width="130" height="80" as="geometry" />
        </mxCell>
        <mxCell id="GHSWFIpDczAcJTBnpGK2-83" value="UMB moduel" style="rounded=1;whiteSpace=wrap;html=1;hachureGap=4;fontFamily=Helvetica;glass=0;shadow=0;textShadow=0;verticalAlign=bottom;fontSize=18;fontStyle=1" vertex="1" parent="1">
          <mxGeometry x="858" y="1280" width="130" height="70" as="geometry" />
        </mxCell>
        <mxCell id="GHSWFIpDczAcJTBnpGK2-84" value="UMB moduel" style="rounded=1;whiteSpace=wrap;html=1;hachureGap=4;fontFamily=Helvetica;glass=0;shadow=0;textShadow=0;verticalAlign=bottom;fontSize=18;fontStyle=1" vertex="1" parent="1">
          <mxGeometry x="858" y="1400" width="130" height="60" as="geometry" />
        </mxCell>
        <mxCell id="GHSWFIpDczAcJTBnpGK2-85" value="...." style="rounded=1;whiteSpace=wrap;html=1;hachureGap=4;fontFamily=Helvetica;glass=0;shadow=0;textShadow=0;verticalAlign=bottom;fontSize=18;fontStyle=1" vertex="1" parent="1">
          <mxGeometry x="858" y="1360" width="130" height="30" as="geometry" />
        </mxCell>
        <mxCell id="GHSWFIpDczAcJTBnpGK2-86" value="Internal communication modules&lt;div&gt;(CAN / UART / Ethernet)&lt;/div&gt;" style="rounded=1;whiteSpace=wrap;html=1;hachureGap=4;fontFamily=Helvetica;glass=0;shadow=0;textShadow=0;verticalAlign=bottom;fontSize=18;fontStyle=1" vertex="1" parent="1">
          <mxGeometry x="613" y="1190" width="370" height="70" as="geometry" />
        </mxCell>
        <mxCell id="GHSWFIpDczAcJTBnpGK2-87" value="HSE" style="rounded=1;whiteSpace=wrap;html=1;hachureGap=4;fontFamily=Helvetica;glass=0;shadow=0;textShadow=0;verticalAlign=bottom;fontSize=18;fontStyle=1" vertex="1" parent="1">
          <mxGeometry x="753" y="1400" width="80" height="50" as="geometry" />
        </mxCell>
        <mxCell id="GHSWFIpDczAcJTBnpGK2-88" value="TCU" style="rounded=1;whiteSpace=wrap;html=1;hachureGap=4;fontFamily=Helvetica;glass=0;shadow=0;textShadow=0;verticalAlign=bottom;fontSize=18;fontStyle=1" vertex="1" parent="1">
          <mxGeometry x="613" y="1100" width="370" height="70" as="geometry" />
        </mxCell>
        <mxCell id="GHSWFIpDczAcJTBnpGK2-89" value="" style="shape=flexArrow;endArrow=classic;startArrow=classic;html=1;rounded=0;" edge="1" parent="1">
          <mxGeometry width="100" height="100" relative="1" as="geometry">
            <mxPoint x="165.5" y="1140" as="sourcePoint" />
            <mxPoint x="165.5" y="990" as="targetPoint" />
          </mxGeometry>
        </mxCell>
        <mxCell id="GHSWFIpDczAcJTBnpGK2-90" value="" style="shape=flexArrow;endArrow=classic;startArrow=classic;html=1;rounded=0;" edge="1" parent="1">
          <mxGeometry width="100" height="100" relative="1" as="geometry">
            <mxPoint x="366" y="1140" as="sourcePoint" />
            <mxPoint x="366" y="990" as="targetPoint" />
          </mxGeometry>
        </mxCell>
        <mxCell id="GHSWFIpDczAcJTBnpGK2-91" value="" style="shape=flexArrow;endArrow=classic;startArrow=classic;html=1;rounded=0;" edge="1" parent="1">
          <mxGeometry width="100" height="100" relative="1" as="geometry">
            <mxPoint x="168" y="1290" as="sourcePoint" />
            <mxPoint x="168" y="1220" as="targetPoint" />
          </mxGeometry>
        </mxCell>
        <mxCell id="GHSWFIpDczAcJTBnpGK2-92" value="" style="shape=flexArrow;endArrow=classic;startArrow=classic;html=1;rounded=0;" edge="1" parent="1">
          <mxGeometry width="100" height="100" relative="1" as="geometry">
            <mxPoint x="338" y="1290" as="sourcePoint" />
            <mxPoint x="338" y="1220" as="targetPoint" />
          </mxGeometry>
        </mxCell>
        <mxCell id="GHSWFIpDczAcJTBnpGK2-93" value="" style="shape=flexArrow;endArrow=classic;startArrow=classic;html=1;rounded=0;" edge="1" parent="1">
          <mxGeometry width="100" height="100" relative="1" as="geometry">
            <mxPoint x="338" y="1430" as="sourcePoint" />
            <mxPoint x="338" y="1360" as="targetPoint" />
          </mxGeometry>
        </mxCell>
        <mxCell id="GHSWFIpDczAcJTBnpGK2-94" value="" style="shape=flexArrow;endArrow=classic;startArrow=classic;html=1;rounded=0;" edge="1" parent="1">
          <mxGeometry width="100" height="100" relative="1" as="geometry">
            <mxPoint x="461" y="1429.5" as="sourcePoint" />
            <mxPoint x="613" y="1429.5" as="targetPoint" />
          </mxGeometry>
        </mxCell>
        <mxCell id="GHSWFIpDczAcJTBnpGK2-95" value="" style="shape=flexArrow;endArrow=classic;startArrow=classic;html=1;rounded=0;" edge="1" parent="1">
          <mxGeometry width="100" height="100" relative="1" as="geometry">
            <mxPoint x="461" y="1319.5" as="sourcePoint" />
            <mxPoint x="613" y="1319.5" as="targetPoint" />
          </mxGeometry>
        </mxCell>
        <mxCell id="GHSWFIpDczAcJTBnpGK2-96" value="" style="shape=flexArrow;endArrow=classic;startArrow=classic;html=1;rounded=0;" edge="1" parent="1">
          <mxGeometry width="100" height="100" relative="1" as="geometry">
            <mxPoint x="343" y="1329" as="sourcePoint" />
            <mxPoint x="415" y="1329" as="targetPoint" />
          </mxGeometry>
        </mxCell>
        <mxCell id="GHSWFIpDczAcJTBnpGK2-97" value="" style="shape=flexArrow;endArrow=classic;startArrow=classic;html=1;rounded=0;width=6.285714285714286;endSize=2.1028571428571428;startSize=3.325714285714286;" edge="1" parent="1">
          <mxGeometry width="100" height="100" relative="1" as="geometry">
            <mxPoint x="709" y="1319.5" as="sourcePoint" />
            <mxPoint x="759" y="1320" as="targetPoint" />
          </mxGeometry>
        </mxCell>
        <mxCell id="GHSWFIpDczAcJTBnpGK2-98" value="" style="shape=flexArrow;endArrow=classic;startArrow=classic;html=1;rounded=0;width=6.285714285714286;endSize=2.1028571428571428;startSize=3.325714285714286;" edge="1" parent="1">
          <mxGeometry width="100" height="100" relative="1" as="geometry">
            <mxPoint x="698" y="1415" as="sourcePoint" />
            <mxPoint x="748" y="1415.5" as="targetPoint" />
          </mxGeometry>
        </mxCell>
        <mxCell id="GHSWFIpDczAcJTBnpGK2-99" value="" style="shape=flexArrow;endArrow=classic;startArrow=classic;html=1;rounded=0;width=6.285714285714286;endSize=2.1028571428571428;startSize=3.325714285714286;" edge="1" parent="1">
          <mxGeometry width="100" height="100" relative="1" as="geometry">
            <mxPoint x="818" y="1319.71" as="sourcePoint" />
            <mxPoint x="868" y="1320.21" as="targetPoint" />
          </mxGeometry>
        </mxCell>
        <mxCell id="GHSWFIpDczAcJTBnpGK2-100" value="" style="shape=flexArrow;endArrow=classic;startArrow=classic;html=1;rounded=0;width=6.285714285714286;endSize=2.1028571428571428;startSize=3.325714285714286;" edge="1" parent="1">
          <mxGeometry width="100" height="100" relative="1" as="geometry">
            <mxPoint x="838" y="1415" as="sourcePoint" />
            <mxPoint x="888" y="1415.5" as="targetPoint" />
          </mxGeometry>
        </mxCell>
        <mxCell id="GHSWFIpDczAcJTBnpGK2-101" value="" style="shape=flexArrow;endArrow=classic;startArrow=classic;html=1;rounded=0;" edge="1" parent="1">
          <mxGeometry width="100" height="100" relative="1" as="geometry">
            <mxPoint x="792" y="1320" as="sourcePoint" />
            <mxPoint x="792.4100000000001" y="1260" as="targetPoint" />
          </mxGeometry>
        </mxCell>
        <mxCell id="GHSWFIpDczAcJTBnpGK2-102" value="" style="shape=flexArrow;endArrow=classic;startArrow=classic;html=1;rounded=0;" edge="1" parent="1">
          <mxGeometry width="100" height="100" relative="1" as="geometry">
            <mxPoint x="856.82" y="1210" as="sourcePoint" />
            <mxPoint x="857.2300000000001" y="1150" as="targetPoint" />
          </mxGeometry>
        </mxCell>
        <mxCell id="GHSWFIpDczAcJTBnpGK2-103" value="" style="shape=flexArrow;endArrow=classic;startArrow=classic;html=1;rounded=0;" edge="1" parent="1">
          <mxGeometry width="100" height="100" relative="1" as="geometry">
            <mxPoint x="797.4100000000001" y="1100" as="sourcePoint" />
            <mxPoint x="797" y="990" as="targetPoint" />
          </mxGeometry>
        </mxCell>
        <mxCell id="GHSWFIpDczAcJTBnpGK2-104" value="" style="sketch=0;aspect=fixed;pointerEvents=1;shadow=0;dashed=0;html=1;strokeColor=none;labelPosition=center;verticalLabelPosition=bottom;verticalAlign=top;align=center;fillColor=#00188D;shape=mxgraph.mscae.enterprise.wireless_connection" vertex="1" parent="1">
          <mxGeometry x="988" y="1290" width="42" height="50" as="geometry" />
        </mxCell>
        <mxCell id="GHSWFIpDczAcJTBnpGK2-105" value="" style="sketch=0;aspect=fixed;pointerEvents=1;shadow=0;dashed=0;html=1;strokeColor=none;labelPosition=center;verticalLabelPosition=bottom;verticalAlign=top;align=center;fillColor=#00188D;shape=mxgraph.mscae.enterprise.wireless_connection" vertex="1" parent="1">
          <mxGeometry x="988" y="1395" width="42" height="50" as="geometry" />
        </mxCell>
        <mxCell id="GHSWFIpDczAcJTBnpGK2-106" value="" style="sketch=0;aspect=fixed;pointerEvents=1;shadow=0;dashed=0;html=1;strokeColor=none;labelPosition=center;verticalLabelPosition=bottom;verticalAlign=top;align=center;fillColor=#00188D;shape=mxgraph.mscae.enterprise.wireless_connection;rotation=-177;" vertex="1" parent="1">
          <mxGeometry x="571" y="1380" width="42" height="50" as="geometry" />
        </mxCell>
        <mxCell id="GHSWFIpDczAcJTBnpGK2-107" value="" style="sketch=0;aspect=fixed;pointerEvents=1;shadow=0;dashed=0;html=1;strokeColor=none;labelPosition=center;verticalLabelPosition=bottom;verticalAlign=top;align=center;fillColor=#00188D;shape=mxgraph.mscae.enterprise.wireless_connection;rotation=-177;" vertex="1" parent="1">
          <mxGeometry x="568" y="1270" width="42" height="50" as="geometry" />
        </mxCell>
        <mxCell id="GHSWFIpDczAcJTBnpGK2-108" value="" style="points=[[0,0.58,0],[0.09,0.58,0],[0.36,0.39,0],[0.64,0.195,0],[0.91,0,0],[1,0,0],[1,0.25,0],[1,0.5,0],[1,0.75,0],[1,1,0],[0,1,0],[0.09,1,0],[0.36,1,0],[0.64,1,0],[0.91,1,0],[0,0.79,0]];verticalLabelPosition=bottom;sketch=0;html=1;verticalAlign=top;aspect=fixed;align=center;pointerEvents=1;shape=mxgraph.cisco19.wifi_indicator;fillColor=#005073;strokeColor=none;" vertex="1" parent="1">
          <mxGeometry x="878" y="1070" width="50" height="50" as="geometry" />
        </mxCell>
        <mxCell id="GHSWFIpDczAcJTBnpGK2-109" value="" style="points=[[0,0.58,0],[0.09,0.58,0],[0.36,0.39,0],[0.64,0.195,0],[0.91,0,0],[1,0,0],[1,0.25,0],[1,0.5,0],[1,0.75,0],[1,1,0],[0,1,0],[0.09,1,0],[0.36,1,0],[0.64,1,0],[0.91,1,0],[0,0.79,0]];verticalLabelPosition=bottom;sketch=0;html=1;verticalAlign=top;aspect=fixed;align=center;pointerEvents=1;shape=mxgraph.cisco19.wifi_indicator;fillColor=#005073;strokeColor=none;" vertex="1" parent="1">
          <mxGeometry x="197" y="1100" width="50" height="50" as="geometry" />
        </mxCell>
        <mxCell id="GHSWFIpDczAcJTBnpGK2-110" value="" style="points=[[0,0.58,0],[0.09,0.58,0],[0.36,0.39,0],[0.64,0.195,0],[0.91,0,0],[1,0,0],[1,0.25,0],[1,0.5,0],[1,0.75,0],[1,1,0],[0,1,0],[0.09,1,0],[0.36,1,0],[0.64,1,0],[0.91,1,0],[0,0.79,0]];verticalLabelPosition=bottom;sketch=0;html=1;verticalAlign=top;aspect=fixed;align=center;pointerEvents=1;shape=mxgraph.cisco19.wifi_indicator;fillColor=#005073;strokeColor=none;" vertex="1" parent="1">
          <mxGeometry x="388" y="1100" width="50" height="50" as="geometry" />
        </mxCell>
        <mxCell id="GHSWFIpDczAcJTBnpGK2-111" value="" style="sketch=0;aspect=fixed;pointerEvents=1;shadow=0;dashed=0;html=1;strokeColor=none;labelPosition=center;verticalLabelPosition=bottom;verticalAlign=top;align=center;fillColor=#00188D;shape=mxgraph.mscae.enterprise.wireless_connection" vertex="1" parent="1">
          <mxGeometry x="480" y="1520" width="42" height="50" as="geometry" />
        </mxCell>
        <mxCell id="GHSWFIpDczAcJTBnpGK2-112" value="" style="points=[[0,0.58,0],[0.09,0.58,0],[0.36,0.39,0],[0.64,0.195,0],[0.91,0,0],[1,0,0],[1,0.25,0],[1,0.5,0],[1,0.75,0],[1,1,0],[0,1,0],[0.09,1,0],[0.36,1,0],[0.64,1,0],[0.91,1,0],[0,0.79,0]];verticalLabelPosition=bottom;sketch=0;html=1;verticalAlign=top;aspect=fixed;align=center;pointerEvents=1;shape=mxgraph.cisco19.wifi_indicator;fillColor=#005073;strokeColor=none;" vertex="1" parent="1">
          <mxGeometry x="468" y="1580" width="50" height="50" as="geometry" />
        </mxCell>
        <mxCell id="GHSWFIpDczAcJTBnpGK2-113" value="近场通信" style="text;html=1;align=center;verticalAlign=middle;resizable=0;points=[];autosize=1;strokeColor=none;fillColor=none;fontSize=21;" vertex="1" parent="1">
          <mxGeometry x="513" y="1525" width="110" height="40" as="geometry" />
        </mxCell>
        <mxCell id="GHSWFIpDczAcJTBnpGK2-114" value="远程通信" style="text;html=1;align=center;verticalAlign=middle;resizable=0;points=[];autosize=1;strokeColor=none;fillColor=none;fontSize=21;" vertex="1" parent="1">
          <mxGeometry x="508" y="1590" width="110" height="40" as="geometry" />
        </mxCell>
        <mxCell id="GHSWFIpDczAcJTBnpGK2-115" value="" style="sketch=0;aspect=fixed;pointerEvents=1;shadow=0;dashed=0;html=1;strokeColor=#6F0000;labelPosition=center;verticalLabelPosition=bottom;verticalAlign=top;align=center;fillColor=#a20025;shape=mxgraph.mscae.enterprise.lock;fontColor=#ffffff;" vertex="1" parent="1">
          <mxGeometry x="928" y="880" width="39" height="50" as="geometry" />
        </mxCell>
        <mxCell id="GHSWFIpDczAcJTBnpGK2-116" value="1" style="ellipse;whiteSpace=wrap;html=1;aspect=fixed;strokeWidth=2;fontFamily=Tahoma;spacingBottom=4;spacingRight=2;strokeColor=#6F0000;fillColor=#a20025;fontColor=#ffffff;fontSize=23;fontStyle=1" vertex="1" parent="1">
          <mxGeometry x="518" y="1365" width="40" height="40" as="geometry" />
        </mxCell>
        <mxCell id="GHSWFIpDczAcJTBnpGK2-117" value="2" style="ellipse;whiteSpace=wrap;html=1;aspect=fixed;strokeWidth=2;fontFamily=Tahoma;spacingBottom=4;spacingRight=2;strokeColor=#6F0000;fillColor=#a20025;fontColor=#ffffff;fontSize=23;fontStyle=1" vertex="1" parent="1">
          <mxGeometry x="815" y="1020" width="40" height="40" as="geometry" />
        </mxCell>
        <mxCell id="GHSWFIpDczAcJTBnpGK2-118" value="3" style="ellipse;whiteSpace=wrap;html=1;aspect=fixed;strokeWidth=2;fontFamily=Tahoma;spacingBottom=4;spacingRight=2;strokeColor=#6F0000;fillColor=#a20025;fontColor=#ffffff;fontSize=23;fontStyle=1" vertex="1" parent="1">
          <mxGeometry x="256" y="1010" width="40" height="40" as="geometry" />
        </mxCell>
        <mxCell id="GHSWFIpDczAcJTBnpGK2-119" value="" style="sketch=0;aspect=fixed;pointerEvents=1;shadow=0;dashed=0;html=1;strokeColor=#6F0000;labelPosition=center;verticalLabelPosition=bottom;verticalAlign=top;align=center;fillColor=#a20025;shape=mxgraph.mscae.enterprise.lock;fontColor=#ffffff;" vertex="1" parent="1">
          <mxGeometry x="632" y="1040" width="39" height="50" as="geometry" />
        </mxCell>
        <mxCell id="GHSWFIpDczAcJTBnpGK2-120" value="" style="sketch=0;aspect=fixed;pointerEvents=1;shadow=0;dashed=0;html=1;strokeColor=#6F0000;labelPosition=center;verticalLabelPosition=bottom;verticalAlign=top;align=center;fillColor=#a20025;shape=mxgraph.mscae.enterprise.lock;fontColor=#ffffff;" vertex="1" parent="1">
          <mxGeometry x="78" y="1040" width="39" height="50" as="geometry" />
        </mxCell>
        <mxCell id="GHSWFIpDczAcJTBnpGK2-121" value="4" style="ellipse;whiteSpace=wrap;html=1;aspect=fixed;strokeWidth=2;fontFamily=Tahoma;spacingBottom=4;spacingRight=2;strokeColor=#006EAF;fillColor=#1ba1e2;fontColor=#ffffff;fontSize=23;fontStyle=1" vertex="1" parent="1">
          <mxGeometry x="840" y="1370" width="40" height="40" as="geometry" />
        </mxCell>
        <mxCell id="GHSWFIpDczAcJTBnpGK2-122" value="" style="sketch=0;aspect=fixed;pointerEvents=1;shadow=0;dashed=0;html=1;strokeColor=#6F0000;labelPosition=center;verticalLabelPosition=bottom;verticalAlign=top;align=center;fillColor=#a20025;shape=mxgraph.mscae.enterprise.lock;fontColor=#ffffff;" vertex="1" parent="1">
          <mxGeometry x="215" y="880" width="39" height="50" as="geometry" />
        </mxCell>
        <mxCell id="GHSWFIpDczAcJTBnpGK2-123" value="5" style="ellipse;whiteSpace=wrap;html=1;aspect=fixed;strokeWidth=2;fontFamily=Tahoma;spacingBottom=4;spacingRight=2;strokeColor=#006EAF;fillColor=#1ba1e2;fontColor=#ffffff;fontSize=23;fontStyle=1" vertex="1" parent="1">
          <mxGeometry x="870" y="1160" width="40" height="40" as="geometry" />
        </mxCell>
        <mxCell id="GHSWFIpDczAcJTBnpGK2-124" value="6" style="ellipse;whiteSpace=wrap;html=1;aspect=fixed;strokeWidth=2;fontFamily=Tahoma;spacingBottom=4;spacingRight=2;strokeColor=#006EAF;fillColor=#1ba1e2;fontColor=#ffffff;fontSize=23;fontStyle=1" vertex="1" parent="1">
          <mxGeometry x="286" y="1365" width="40" height="40" as="geometry" />
        </mxCell>
        <mxCell id="GHSWFIpDczAcJTBnpGK2-125" value="7" style="ellipse;whiteSpace=wrap;html=1;aspect=fixed;strokeWidth=2;fontFamily=Tahoma;spacingBottom=4;spacingRight=2;strokeColor=#006EAF;fillColor=#1ba1e2;fontColor=#ffffff;fontSize=23;fontStyle=1" vertex="1" parent="1">
          <mxGeometry x="188" y="1230" width="40" height="40" as="geometry" />
        </mxCell>
        <mxCell id="GHSWFIpDczAcJTBnpGK2-126" value="8" style="ellipse;whiteSpace=wrap;html=1;aspect=fixed;strokeWidth=2;fontFamily=Tahoma;spacingBottom=4;spacingRight=2;strokeColor=#006EAF;fillColor=#1ba1e2;fontColor=#ffffff;fontSize=23;fontStyle=1" vertex="1" parent="1">
          <mxGeometry x="543" y="890" width="40" height="40" as="geometry" />
        </mxCell>
        <mxCell id="GHSWFIpDczAcJTBnpGK2-127" value="" style="sketch=0;aspect=fixed;pointerEvents=1;shadow=0;dashed=0;html=1;strokeColor=#6F0000;labelPosition=center;verticalLabelPosition=bottom;verticalAlign=top;align=center;fillColor=#a20025;shape=mxgraph.mscae.enterprise.lock;fontColor=#ffffff;" vertex="1" parent="1">
          <mxGeometry x="938" y="1465" width="39" height="50" as="geometry" />
        </mxCell>
        <mxCell id="GHSWFIpDczAcJTBnpGK2-128" value="" style="sketch=0;aspect=fixed;pointerEvents=1;shadow=0;dashed=0;html=1;strokeColor=#6F0000;labelPosition=center;verticalLabelPosition=bottom;verticalAlign=top;align=center;fillColor=#a20025;shape=mxgraph.mscae.enterprise.lock;fontColor=#ffffff;" vertex="1" parent="1">
          <mxGeometry x="394" y="1470" width="39" height="50" as="geometry" />
        </mxCell>
        <mxCell id="GHSWFIpDczAcJTBnpGK2-129" value="车端平台" style="rounded=1;whiteSpace=wrap;html=1;hachureGap=4;fontFamily=Helvetica;glass=0;shadow=0;textShadow=0;verticalAlign=bottom;fontSize=18;fontStyle=1;fillColor=#f5f5f5;fontColor=#333333;strokeColor=#666666;" vertex="1" parent="1">
          <mxGeometry x="32" y="1680" width="788" height="510" as="geometry" />
        </mxCell>
        <mxCell id="GHSWFIpDczAcJTBnpGK2-130" value="数字钥匙SDK内容假设" style="rounded=1;whiteSpace=wrap;html=1;hachureGap=4;fontFamily=Helvetica;glass=0;shadow=0;textShadow=0;verticalAlign=bottom;fontSize=18;fontStyle=1" vertex="1" parent="1">
          <mxGeometry x="60" y="1740" width="680" height="260" as="geometry" />
        </mxCell>
        <mxCell id="GHSWFIpDczAcJTBnpGK2-133" value="Key管理机制&lt;div&gt;（加密密钥）&lt;/div&gt;" style="rounded=1;whiteSpace=wrap;html=1;hachureGap=4;fontFamily=Helvetica;glass=0;shadow=0;textShadow=0;verticalAlign=bottom;fontSize=18;fontStyle=1" vertex="1" parent="1">
          <mxGeometry x="94" y="1850" width="184" height="76" as="geometry" />
        </mxCell>
        <mxCell id="GHSWFIpDczAcJTBnpGK2-134" value="HSE的porting接口&lt;div&gt;（密码学算法模块）&lt;/div&gt;" style="rounded=1;whiteSpace=wrap;html=1;hachureGap=4;fontFamily=Helvetica;glass=0;shadow=0;textShadow=0;verticalAlign=bottom;fontSize=18;fontStyle=1" vertex="1" parent="1">
          <mxGeometry x="88" y="1754" width="196" height="76" as="geometry" />
        </mxCell>
        <mxCell id="GHSWFIpDczAcJTBnpGK2-135" value="认证及证书管理&lt;div&gt;（CCC协议）&lt;/div&gt;" style="rounded=1;whiteSpace=wrap;html=1;hachureGap=4;fontFamily=Helvetica;glass=0;shadow=0;textShadow=0;verticalAlign=bottom;fontSize=18;fontStyle=1" vertex="1" parent="1">
          <mxGeometry x="296" y="1754" width="184" height="76" as="geometry" />
        </mxCell>
        <mxCell id="GHSWFIpDczAcJTBnpGK2-137" value="TLS套接字接口" style="rounded=1;whiteSpace=wrap;html=1;hachureGap=4;fontFamily=Helvetica;glass=0;shadow=0;textShadow=0;verticalAlign=bottom;fontSize=18;fontStyle=1" vertex="1" parent="1">
          <mxGeometry x="300" y="1850" width="180" height="76" as="geometry" />
        </mxCell>
        <mxCell id="GHSWFIpDczAcJTBnpGK2-140" value="系统HAL层" style="rounded=1;whiteSpace=wrap;html=1;hachureGap=4;fontFamily=Helvetica;glass=0;shadow=0;textShadow=0;verticalAlign=bottom;fontSize=18;fontStyle=1" vertex="1" parent="1">
          <mxGeometry x="508" y="1754" width="180" height="166" as="geometry" />
        </mxCell>
      </root>
    </mxGraphModel>
  </diagram>
</mxfile>
